<svg width="98" height="26" viewBox="0 0 98 26" fill="none" xmlns="http://www.w3.org/2000/svg">
<path d="M0.062004 25.333V1.76658H5.75799V11.7317H6.06868L13.859 1.76658H20.5676L12.2134 12.284L20.7172 25.333H13.905L8.03639 16.0698L5.75799 18.9466V25.333H0.062004ZM27.7969 25.6322C26.6692 25.6322 25.6681 25.4442 24.7935 25.0683C23.9267 24.6848 23.2401 24.1094 22.7338 23.3423C22.2351 22.5675 21.9858 21.5971 21.9858 20.431C21.9858 19.4491 22.1584 18.6206 22.5036 17.9455C22.8488 17.2704 23.3245 16.7219 23.9305 16.3C24.5365 15.8781 25.2346 15.5597 26.0248 15.3449C26.8149 15.1224 27.6588 14.9728 28.5563 14.8961C29.5613 14.8041 30.3706 14.7082 30.9843 14.6084C31.598 14.501 32.043 14.3515 32.3191 14.1597C32.603 13.9602 32.7449 13.6802 32.7449 13.3197V13.2621C32.7449 12.6714 32.5416 12.215 32.135 11.8928C31.7284 11.5706 31.1799 11.4095 30.4895 11.4095C29.7454 11.4095 29.147 11.5706 28.6944 11.8928C28.2418 12.215 27.9541 12.6599 27.8314 13.2276L22.6417 13.0435C22.7951 11.9695 23.1902 11.0106 23.8269 10.1667C24.4713 9.3152 25.3535 8.64779 26.4735 8.1645C27.6012 7.67353 28.9552 7.42805 30.5355 7.42805C31.6632 7.42805 32.7027 7.56229 33.6539 7.83079C34.6052 8.09162 35.4337 8.47519 36.1395 8.9815C36.8452 9.48014 37.3899 10.0938 37.7735 10.8226C38.1647 11.5514 38.3603 12.3837 38.3603 13.3197V25.333H33.0671V22.8705H32.929C32.6145 23.4689 32.2117 23.9752 31.7208 24.3894C31.2375 24.8037 30.6659 25.1144 30.0062 25.3215C29.3541 25.5286 28.6177 25.6322 27.7969 25.6322ZM29.5344 21.9499C30.1405 21.9499 30.6851 21.8272 31.1684 21.5817C31.6594 21.3362 32.0506 20.9987 32.3421 20.5691C32.6337 20.1318 32.7794 19.6255 32.7794 19.0502V17.3701C32.6183 17.4545 32.4227 17.5312 32.1926 17.6003C31.9701 17.6693 31.7246 17.7345 31.4561 17.7959C31.1876 17.8573 30.9114 17.911 30.6276 17.957C30.3438 18.003 30.0714 18.0452 29.8106 18.0836C29.2813 18.168 28.8287 18.2984 28.4528 18.4748C28.0845 18.6512 27.8007 18.8814 27.6012 19.1652C27.4095 19.4414 27.3136 19.7713 27.3136 20.1548C27.3136 20.7379 27.5207 21.1828 27.9349 21.4897C28.3569 21.7965 28.89 21.9499 29.5344 21.9499ZM41.8009 25.333V7.65819H47.1517V10.9032H47.3473C47.7156 9.82918 48.3369 8.9815 49.2115 8.36012C50.086 7.73874 51.1293 7.42805 52.3414 7.42805C53.5688 7.42805 54.6198 7.74257 55.4943 8.37162C56.3689 9.00067 56.925 9.84452 57.1628 10.9032H57.347C57.6768 9.8522 58.3212 9.01218 59.2801 8.38313C60.2391 7.74641 61.3706 7.42805 62.6747 7.42805C64.3471 7.42805 65.7049 7.96504 66.7482 9.03903C67.7915 10.1054 68.3132 11.5706 68.3132 13.4347V25.333H62.6862V14.7235C62.6862 13.8413 62.4599 13.1701 62.0073 12.7098C61.5547 12.2418 60.9678 12.0078 60.2467 12.0078C59.4719 12.0078 58.862 12.261 58.4171 12.7673C57.9798 13.266 57.7612 13.9372 57.7612 14.781V25.333H52.3529V14.666C52.3529 13.8451 52.1304 13.1969 51.6855 12.7213C51.2405 12.2457 50.6537 12.0078 49.9249 12.0078C49.4339 12.0078 49.0005 12.1268 48.6246 12.3646C48.2487 12.5947 47.9534 12.9246 47.7386 13.3542C47.5314 13.7838 47.4279 14.2901 47.4279 14.8731V25.333H41.8009ZM71.7998 25.333V7.65819H77.4267V25.333H71.7998ZM74.619 5.59843C73.8289 5.59843 73.15 5.3376 72.5823 4.81595C72.0146 4.28662 71.7308 3.6499 71.7308 2.90578C71.7308 2.16932 72.0146 1.54027 72.5823 1.01862C73.15 0.489296 73.8289 0.224634 74.619 0.224634C75.4168 0.224634 76.0958 0.489296 76.6558 1.01862C77.2235 1.54027 77.5073 2.16932 77.5073 2.90578C77.5073 3.6499 77.2235 4.28662 76.6558 4.81595C76.0958 5.3376 75.4168 5.59843 74.619 5.59843ZM89.2704 25.6667C87.4216 25.6667 85.8259 25.3023 84.4834 24.5735C83.1486 23.8371 82.1207 22.79 81.3995 21.4321C80.6861 20.0666 80.3294 18.4441 80.3294 16.5646C80.3294 14.7389 80.6899 13.1432 81.4111 11.7777C82.1322 10.4045 83.1486 9.33821 84.4604 8.57875C85.7722 7.81161 87.318 7.42805 89.0978 7.42805C90.3559 7.42805 91.5066 7.62367 92.5499 8.0149C93.5932 8.40614 94.4946 8.98533 95.254 9.75247C96.0135 10.5196 96.6042 11.467 97.0261 12.5947C97.448 13.7147 97.659 14.9997 97.659 16.4496V17.8534H82.2971V14.5854H92.4233C92.4156 13.9871 92.2737 13.4539 91.9975 12.9859C91.7214 12.518 91.3416 12.1536 90.8583 11.8928C90.3827 11.6243 89.8342 11.49 89.2128 11.49C88.5838 11.49 88.0199 11.632 87.5213 11.9158C87.0227 12.192 86.6276 12.5717 86.3361 13.055C86.0446 13.5306 85.8911 14.0714 85.8758 14.6775V18.003C85.8758 18.7241 86.0177 19.357 86.3015 19.9017C86.5854 20.4387 86.9881 20.8568 87.5098 21.156C88.0314 21.4551 88.6528 21.6047 89.3739 21.6047C89.8726 21.6047 90.3252 21.5357 90.7318 21.3976C91.1383 21.2595 91.4874 21.0562 91.7789 20.7877C92.0704 20.5192 92.289 20.1894 92.4348 19.7981L97.6015 19.9477C97.3867 21.1061 96.9149 22.1149 96.1861 22.9741C95.465 23.8256 94.5176 24.4892 93.3439 24.9648C92.1701 25.4327 90.8123 25.6667 89.2704 25.6667Z" fill="#474747"/>
</svg>
